<?xml version="1.0" standalone="no"?>
<!DOCTYPE svg PUBLIC "-//W3C//DTD SVG 20010904//EN"
 "http://www.w3.org/TR/2001/REC-SVG-20010904/DTD/svg10.dtd">
<svg version="1.0" xmlns="http://www.w3.org/2000/svg"
 width="100.000000pt" height="100.000000pt" viewBox="0 0 100.000000 100.000000"
 preserveAspectRatio="xMidYMid meet">
<metadata>
Created by potrace 1.16, written by Peter Selinger 2001-2019
</metadata>
<g transform="translate(0.000000,100.000000) scale(0.100000,-0.100000)"
fill="#000000" stroke="none">
<path d="M382 862 c-18 -15 -32 -32 -32 -39 0 -7 -6 -10 -12 -8 -9 4 -14 -7
-16 -31 -2 -29 2 -37 18 -41 19 -5 19 -6 3 -18 -10 -7 -22 -11 -28 -8 -5 4 -7
3 -3 -1 7 -9 -33 -52 -45 -48 -5 1 -6 -2 -2 -8 4 -6 1 -17 -5 -25 -6 -8 -8
-20 -4 -26 5 -8 2 -10 -7 -7 -12 5 -15 -2 -13 -33 1 -21 -1 -37 -5 -35 -3 2
-6 -20 -6 -49 0 -29 3 -51 8 -48 4 2 7 -9 7 -26 0 -20 7 -34 21 -41 12 -7 18
-18 15 -26 -3 -8 1 -14 8 -14 8 0 16 -6 19 -12 8 -25 20 3 25 57 2 30 1 62 -3
72 -5 10 -7 27 -6 37 2 11 -3 46 -9 77 -18 85 -10 104 60 139 63 32 64 32 72
150 4 45 -16 49 -60 12z"/>
</g>
</svg>
